<mxfile host="app.diagrams.net" agent="Mozilla/5.0 (Windows NT 10.0; Win64; x64) AppleWebKit/537.36 (KHTML, like Gecko) Chrome/128.0.0.0 Safari/537.36" version="24.7.7">
  <diagram name="第 1 页" id="KSzrjMSbnwzbSiNkv9ed">
    <mxGraphModel dx="1434" dy="738" grid="1" gridSize="10" guides="1" tooltips="1" connect="1" arrows="1" fold="1" page="1" pageScale="1" pageWidth="827" pageHeight="2000" math="0" shadow="0">
      <root>
        <mxCell id="0" />
        <mxCell id="1" parent="0" />
        <mxCell id="GfNmqoCnwzgUz0iN6dm5-1" value="&lt;font style=&quot;font-size: 17px;&quot;&gt;NMC208&lt;br&gt;控制器&lt;/font&gt;" style="rounded=0;whiteSpace=wrap;html=1;" vertex="1" parent="1">
          <mxGeometry x="70" y="90" width="80" height="360" as="geometry" />
        </mxCell>
        <mxCell id="GfNmqoCnwzgUz0iN6dm5-2" value="" style="endArrow=none;html=1;rounded=0;strokeWidth=3;" edge="1" parent="1">
          <mxGeometry width="50" height="50" relative="1" as="geometry">
            <mxPoint x="300" y="450" as="sourcePoint" />
            <mxPoint x="300" y="250" as="targetPoint" />
          </mxGeometry>
        </mxCell>
        <mxCell id="GfNmqoCnwzgUz0iN6dm5-3" value="&lt;b&gt;&lt;font style=&quot;font-size: 18px;&quot;&gt;常电线&lt;/font&gt;&lt;/b&gt;" style="text;strokeColor=none;align=center;fillColor=none;html=1;verticalAlign=middle;whiteSpace=wrap;rounded=0;" vertex="1" parent="1">
          <mxGeometry x="300" y="140" width="80" height="30" as="geometry" />
        </mxCell>
        <mxCell id="GfNmqoCnwzgUz0iN6dm5-4" value="" style="endArrow=none;html=1;rounded=0;strokeWidth=3;" edge="1" parent="1">
          <mxGeometry width="50" height="50" relative="1" as="geometry">
            <mxPoint x="300" y="180" as="sourcePoint" />
            <mxPoint x="300" y="90" as="targetPoint" />
          </mxGeometry>
        </mxCell>
        <mxCell id="GfNmqoCnwzgUz0iN6dm5-5" value="" style="endArrow=none;dashed=1;html=1;dashPattern=1 3;strokeWidth=2;rounded=0;" edge="1" parent="1">
          <mxGeometry width="50" height="50" relative="1" as="geometry">
            <mxPoint x="300" y="250" as="sourcePoint" />
            <mxPoint x="300" y="180" as="targetPoint" />
          </mxGeometry>
        </mxCell>
        <mxCell id="GfNmqoCnwzgUz0iN6dm5-6" value="" style="endArrow=classic;html=1;rounded=0;exitX=1;exitY=0.25;exitDx=0;exitDy=0;strokeWidth=3;" edge="1" parent="1" source="GfNmqoCnwzgUz0iN6dm5-1">
          <mxGeometry width="50" height="50" relative="1" as="geometry">
            <mxPoint x="154" y="202.94000000000005" as="sourcePoint" />
            <mxPoint x="300" y="180" as="targetPoint" />
          </mxGeometry>
        </mxCell>
        <mxCell id="GfNmqoCnwzgUz0iN6dm5-7" value="" style="endArrow=classic;html=1;rounded=0;exitX=1.05;exitY=0.286;exitDx=0;exitDy=0;exitPerimeter=0;strokeWidth=3;" edge="1" parent="1">
          <mxGeometry width="50" height="50" relative="1" as="geometry">
            <mxPoint x="154" y="252" as="sourcePoint" />
            <mxPoint x="300" y="252" as="targetPoint" />
          </mxGeometry>
        </mxCell>
        <mxCell id="GfNmqoCnwzgUz0iN6dm5-8" value="" style="endArrow=classic;html=1;rounded=0;exitX=1.05;exitY=0.286;exitDx=0;exitDy=0;exitPerimeter=0;strokeWidth=3;" edge="1" parent="1">
          <mxGeometry width="50" height="50" relative="1" as="geometry">
            <mxPoint x="154" y="272" as="sourcePoint" />
            <mxPoint x="300" y="272" as="targetPoint" />
          </mxGeometry>
        </mxCell>
        <mxCell id="GfNmqoCnwzgUz0iN6dm5-9" value="&lt;b&gt;&lt;font style=&quot;font-size: 18px;&quot;&gt;P1-1&lt;/font&gt;&lt;/b&gt;" style="text;strokeColor=none;align=center;fillColor=none;html=1;verticalAlign=middle;whiteSpace=wrap;rounded=0;" vertex="1" parent="1">
          <mxGeometry x="170" y="150" width="80" height="30" as="geometry" />
        </mxCell>
        <mxCell id="GfNmqoCnwzgUz0iN6dm5-10" value="&lt;b&gt;&lt;font style=&quot;font-size: 18px;&quot;&gt;P1-2&lt;/font&gt;&lt;/b&gt;" style="text;strokeColor=none;align=center;fillColor=none;html=1;verticalAlign=middle;whiteSpace=wrap;rounded=0;" vertex="1" parent="1">
          <mxGeometry x="170" y="222" width="80" height="30" as="geometry" />
        </mxCell>
        <mxCell id="GfNmqoCnwzgUz0iN6dm5-11" value="&lt;b&gt;&lt;font style=&quot;font-size: 18px;&quot;&gt;P1-3&lt;/font&gt;&lt;/b&gt;" style="text;strokeColor=none;align=center;fillColor=none;html=1;verticalAlign=middle;whiteSpace=wrap;rounded=0;" vertex="1" parent="1">
          <mxGeometry x="170" y="272" width="80" height="30" as="geometry" />
        </mxCell>
        <mxCell id="GfNmqoCnwzgUz0iN6dm5-12" value="" style="endArrow=none;html=1;rounded=0;strokeWidth=3;" edge="1" parent="1">
          <mxGeometry width="50" height="50" relative="1" as="geometry">
            <mxPoint x="470" y="450" as="sourcePoint" />
            <mxPoint x="470" y="90" as="targetPoint" />
          </mxGeometry>
        </mxCell>
        <mxCell id="GfNmqoCnwzgUz0iN6dm5-13" value="" style="endArrow=none;html=1;rounded=0;strokeWidth=3;" edge="1" parent="1">
          <mxGeometry width="50" height="50" relative="1" as="geometry">
            <mxPoint x="580" y="450" as="sourcePoint" />
            <mxPoint x="580" y="90" as="targetPoint" />
          </mxGeometry>
        </mxCell>
        <mxCell id="GfNmqoCnwzgUz0iN6dm5-14" value="&lt;b&gt;&lt;font style=&quot;font-size: 18px;&quot;&gt;上电线&lt;/font&gt;&lt;/b&gt;" style="text;strokeColor=none;align=center;fillColor=none;html=1;verticalAlign=middle;whiteSpace=wrap;rounded=0;" vertex="1" parent="1">
          <mxGeometry x="470" y="140" width="80" height="30" as="geometry" />
        </mxCell>
        <mxCell id="GfNmqoCnwzgUz0iN6dm5-15" value="&lt;b&gt;&lt;font style=&quot;font-size: 18px;&quot;&gt;打火线&lt;/font&gt;&lt;/b&gt;" style="text;strokeColor=none;align=center;fillColor=none;html=1;verticalAlign=middle;whiteSpace=wrap;rounded=0;" vertex="1" parent="1">
          <mxGeometry x="580" y="140" width="80" height="30" as="geometry" />
        </mxCell>
        <mxCell id="GfNmqoCnwzgUz0iN6dm5-17" value="" style="endArrow=classic;html=1;rounded=0;strokeWidth=3;" edge="1" parent="1">
          <mxGeometry width="50" height="50" relative="1" as="geometry">
            <mxPoint x="150" y="360" as="sourcePoint" />
            <mxPoint x="470" y="360" as="targetPoint" />
          </mxGeometry>
        </mxCell>
        <mxCell id="GfNmqoCnwzgUz0iN6dm5-19" value="" style="endArrow=classic;html=1;rounded=0;strokeWidth=3;" edge="1" parent="1">
          <mxGeometry width="50" height="50" relative="1" as="geometry">
            <mxPoint x="150" y="390" as="sourcePoint" />
            <mxPoint x="580" y="390" as="targetPoint" />
          </mxGeometry>
        </mxCell>
        <mxCell id="GfNmqoCnwzgUz0iN6dm5-20" value="&lt;b&gt;&lt;font style=&quot;font-size: 18px;&quot;&gt;P1-4&lt;/font&gt;&lt;/b&gt;" style="text;strokeColor=none;align=center;fillColor=none;html=1;verticalAlign=middle;whiteSpace=wrap;rounded=0;" vertex="1" parent="1">
          <mxGeometry x="170" y="330" width="80" height="30" as="geometry" />
        </mxCell>
        <mxCell id="GfNmqoCnwzgUz0iN6dm5-22" value="&lt;b&gt;&lt;font style=&quot;font-size: 18px;&quot;&gt;P1-8&lt;/font&gt;&lt;/b&gt;" style="text;strokeColor=none;align=center;fillColor=none;html=1;verticalAlign=middle;whiteSpace=wrap;rounded=0;" vertex="1" parent="1">
          <mxGeometry x="170" y="390" width="80" height="30" as="geometry" />
        </mxCell>
      </root>
    </mxGraphModel>
  </diagram>
</mxfile>
